<?xml version="1.0"?><svg width="800" height="330.66666666666663" xmlns="http://www.w3.org/2000/svg">
 <title>orange scroll flourish</title>

 <g>
  <title>Layer 1</title>
  <g id="svg_2">
   <path d="m400.525299,177.911667c-11.191681,0 -25.878601,-9.682205 -26.03009,-29.802734c-0.299164,-39.737137 43.365204,-51.548462 64.509338,-51.683228c108.584503,-0.679932 172.835663,107.63533 241.061127,107.138962c60.308472,-0.441467 76.392761,-42.247375 75.449463,-76.958969c-0.942871,-34.699295 -17.730591,-55.015625 -60.736816,-55.078506c-40.742737,-0.062881 -47.648438,27.641602 -47.155884,48.665268c0.431641,18.756973 13.400757,39.014755 39.610962,39.611221c27.340393,0.622177 38.43042,-11.363098 38.479248,-24.52124c0.04834,-13.03743 -8.047974,-22.634995 -27.161865,-22.257736" id="path908" stroke-miterlimit="4" stroke-linejoin="round" stroke-linecap="round" stroke-width="10" stroke="#ff7f00" fill-rule="evenodd" fill-opacity="0.75" fill="none"/>
   <path transform="rotate(-180, 253.5, 169.332)" id="svg_1" d="m81.663254,211.498352c-11.690964,0 -27.033096,-10.114166 -27.19133,-31.132294c-0.312515,-41.509903 45.299789,-53.848145 67.387207,-53.988922c113.42865,-0.710266 180.546204,112.437134 251.815369,111.91864c62.998993,-0.461151 79.800781,-44.132111 78.81543,-80.392273c-0.984985,-36.247284 -18.521637,-57.469986 -63.446411,-57.53566c-42.560364,-0.065689 -49.774139,28.874741 -49.259644,50.836319c0.450867,19.593781 13.998657,40.75528 41.378113,41.378357c28.56012,0.649933 40.144836,-11.870026 40.195862,-25.615173c0.050537,-13.619049 -8.406982,-23.644791 -28.373535,-23.250702" stroke-miterlimit="4" stroke-linejoin="round" stroke-linecap="round" stroke-width="10" stroke="#ff7f00" fill-rule="evenodd" fill-opacity="0.75" fill="none"/>
  </g>
 </g>
</svg>